<svg xmlns="http://www.w3.org/2000/svg" viewBox="0 0 32 32">
  <defs>
    <linearGradient id="docGrad" x1="0" y1="0" x2="1" y2="1">
      <stop offset="0%" stop-color="#004F90"/>
      <stop offset="100%" stop-color="#0066b3"/>
    </linearGradient>
  </defs>
  <!-- Document body -->
  <path d="M6 4h14l6 6v18a2 2 0 0 1-2 2H6a2 2 0 0 1-2-2V6a2 2 0 0 1 2-2z"
        fill="url(#docGrad)" opacity="0.12"/>
  <path d="M6 4h14l6 6v18a2 2 0 0 1-2 2H6a2 2 0 0 1-2-2V6a2 2 0 0 1 2-2z"
        fill="none" stroke="#004F90" stroke-width="1.5" stroke-linejoin="round"/>
  <!-- Page fold -->
  <path d="M20 4v6h6" fill="#004F90" opacity="0.08" stroke="#004F90" stroke-width="1" stroke-linejoin="round"/>
  <!-- Text lines -->
  <rect x="9" y="13" width="12" height="1.5" rx="0.75" fill="#004F90" opacity="0.5"/>
  <rect x="9" y="17" width="14" height="1.5" rx="0.75" fill="#004F90" opacity="0.5"/>
  <rect x="9" y="21" width="10" height="1.5" rx="0.75" fill="#004F90" opacity="0.35"/>
  <rect x="9" y="25" width="7" height="1.5" rx="0.75" fill="#004F90" opacity="0.25"/>
  <!-- Sparkle (AI magic) -->
  <path d="M22 6.5l.5-1 .5 1 1 .5-1 .5-.5 1-.5-1-1-.5z"
        fill="#f5a623"/>
</svg>
